<svg width="80.000000" height="80.000000" viewBox="0 0 80 80" fill="none" xmlns="http://www.w3.org/2000/svg" xmlns:xlink="http://www.w3.org/1999/xlink">
	<desc>
			Created with Pixso.
	</desc>
	<defs>
		<clipPath id="clip51_142">
			<rect width="80.000000" height="80.000000" fill="white" fill-opacity="0"/>
		</clipPath>
	</defs>
	<rect width="80.000000" height="80.000000" fill="#FFFFFF" fill-opacity="0"/>
	<g clip-path="url(#clip51_142)">
		<path d="M40 0C34.74 0 29.54 1.03 24.69 3.04C19.83 5.05 15.43 8 11.71 11.71C4.21 19.21 0 29.39 0 40C0 50.6 4.21 60.78 11.71 68.28C15.43 71.99 19.83 74.94 24.69 76.95C29.54 78.96 34.74 80 40 80C50.6 80 60.78 75.78 68.28 68.28C75.78 60.78 80 50.6 80 40C80 34.74 78.96 29.54 76.95 24.69C74.94 19.83 71.99 15.43 68.28 11.71C64.56 8 60.16 5.05 55.3 3.04C50.45 1.03 45.25 0 40 0ZM40 56C29.48 56 20 49.72 16 40C21.52 26.76 36.75 20.48 50 26C56.31 28.64 61.36 33.68 64 40C60 49.72 50.52 56 40 56Z" fill="#3F2AFF" fill-opacity="1.000000" fill-rule="evenodd"/>
		<path d="M40.3572 30.3125C37.6931 30.3125 35.1383 31.3708 33.2545 33.2545C31.3707 35.1382 30.3125 37.6931 30.3125 40.3571C30.3125 43.0212 31.3707 45.576 33.2545 47.4598C35.1383 49.3435 37.6931 50.4018 40.3572 50.4018C43.0211 50.4018 45.576 49.3435 47.4598 47.4598C49.3435 45.576 50.4019 43.0212 50.4019 40.3571C50.4019 37.6931 49.3435 35.1382 47.4598 33.2545C45.576 31.3708 43.0211 30.3125 40.3572 30.3125ZM40.3566 35.837C37.8601 35.837 35.8364 37.8608 35.8364 40.3571C35.8364 42.8535 37.8601 44.8772 40.3566 44.8772C42.8529 44.8772 44.8766 42.8535 44.8766 40.3571C44.8766 37.8608 42.8529 35.837 40.3566 35.837Z" clip-rule="evenodd" fill="#212133" fill-opacity="1.000000" fill-rule="evenodd"/>
	</g>
</svg>
