<svg width="80.000000" height="80.000000" viewBox="0 0 80 80" fill="none" xmlns="http://www.w3.org/2000/svg" xmlns:xlink="http://www.w3.org/1999/xlink">
	<desc>
			Created with Pixso.
	</desc>
	<defs>
		<clipPath id="clip51_130">
			<rect width="31.428570" height="31.428572" transform="translate(25.000000 24.285706)" fill="white" fill-opacity="0"/>
		</clipPath>
		<clipPath id="clip51_129">
			<rect width="80.000000" height="80.000000" fill="white" fill-opacity="0"/>
		</clipPath>
	</defs>
	<rect width="80.000000" height="80.000000" fill="#FFFFFF" fill-opacity="0"/>
	<g clip-path="url(#clip51_129)">
		<rect width="31.428570" height="31.428572" transform="translate(25.000000 24.285706)" fill="#212133" fill-opacity="0"/>
		<g clip-path="url(#clip51_130)">
			<path d="M37.9 43.36C37.9 43.67 38.16 43.92 38.47 43.92L39.18 43.92C39.06 43.56 39.02 43.18 39.06 42.8L38.47 42.8C38.16 42.8 37.9 43.05 37.9 43.36Z" fill="#212133" fill-opacity="1.000000" fill-rule="nonzero"/>
			<path d="M42.35 24.32C41.91 24.23 41.45 24.31 41.08 24.56C40.71 24.8 40.44 25.18 40.35 25.62L38.73 35.92C38.66 36.31 38.32 36.6 37.93 36.61C37.53 36.63 37.17 36.36 37.08 35.97L35.1 26.86C35.01 26.25 34.59 25.74 34.02 25.52C33.44 25.31 32.79 25.42 32.33 25.83C31.86 26.23 31.65 26.86 31.79 27.46L33.67 37.75C33.81 38.53 33.8 39.34 33.64 40.12C34.21 39.55 34.82 39.03 35.47 38.55C36.15 38.03 36.97 37.75 37.82 37.75L41.57 37.75L43.64 26.32C43.74 25.89 43.66 25.43 43.41 25.05C43.17 24.68 42.79 24.41 42.35 24.32Z" fill="#212133" fill-opacity="1.000000" fill-rule="nonzero"/>
			<path d="M43.12 45.11C42.82 45.33 42.49 45.48 42.14 45.56C42.22 45.68 42.28 45.81 42.34 45.94C42.42 46.12 42.4 46.32 42.3 46.47C42.2 46.63 42.02 46.73 41.83 46.73C41.61 46.73 41.41 46.6 41.32 46.39C40.96 45.57 40.15 45.04 39.26 45.05L38.46 45.05C37.53 45.05 36.78 44.29 36.78 43.36C36.78 42.43 37.53 41.68 38.46 41.68L40.15 41.68C41.39 41.68 42.39 40.67 42.39 39.43L42.39 38.87L37.82 38.87C37.21 38.87 36.62 39.07 36.14 39.43C33.94 41.07 31.73 43.51 31.73 46.3C31.73 47.55 32.12 48.77 32.85 49.79L35.66 53.67C36.08 54.26 36.28 54.98 36.22 55.71L45.76 55.71C45.76 54.18 45.61 54.59 48.08 50.38C48.73 49.07 49.09 47.63 49.13 46.17L49.13 43.58L47.82 45.66C47.3 46.55 46.31 47.04 45.29 46.93C44.27 46.81 43.42 46.1 43.12 45.11Z" fill="#212133" fill-opacity="1.000000" fill-rule="nonzero"/>
			<path d="M40.18 42.8C40.07 43.27 40.22 43.76 40.56 44.1C40.9 44.44 41.39 44.59 41.86 44.48C42.67 44.31 42.98 43.67 43.4 42.95C45.69 39.29 45.61 39.44 45.65 39.33C46.16 38.6 45.99 37.6 45.27 37.08C44.91 36.88 44.48 36.83 44.08 36.95C43.68 37.06 43.34 37.33 43.14 37.7L42.99 37.94C43.31 38.14 43.51 38.49 43.51 38.87L43.51 39.43C43.51 41.28 42.02 42.79 40.18 42.8Z" fill="#212133" fill-opacity="1.000000" fill-rule="nonzero"/>
			<path d="M49.02 38.87C48.29 38.46 47.36 38.71 46.94 39.43C46.62 39.96 47.17 39.03 44.36 43.55C44.14 43.9 44.07 44.32 44.16 44.73C44.31 45.32 44.81 45.76 45.41 45.83C46.02 45.9 46.6 45.59 46.88 45.05L49.47 40.94C49.91 40.25 49.71 39.32 49.02 38.87Z" fill="#212133" fill-opacity="1.000000" fill-rule="nonzero"/>
		</g>
		<path d="M40 0C34.7471 0 29.5457 1.03461 24.6926 3.0448C19.8396 5.05499 15.4301 8.0014 11.7157 11.7157C4.21423 19.2172 0 29.3914 0 40C0 50.6086 4.21423 60.7828 11.7157 68.2843C15.4301 71.9987 19.8396 74.9449 24.6926 76.9552C29.5457 78.9653 34.7471 80 40 80C50.6086 80 60.7828 75.7858 68.2843 68.2843C75.7858 60.7828 80 50.6086 80 40C80 34.7471 78.9653 29.5457 76.9552 24.6927C74.9449 19.8397 71.9987 15.4301 68.2843 11.7157C64.5699 8.0014 60.1604 5.05499 55.3074 3.0448C50.4543 1.03461 45.2529 0 40 0ZM40.3572 18.5714C28.3252 18.5714 18.5714 28.3252 18.5714 40.3572C18.5714 52.389 28.3252 62.1429 40.3572 62.1429C52.389 62.1429 62.1428 52.389 62.1428 40.3572C62.1428 28.3252 52.389 18.5714 40.3572 18.5714Z" clip-rule="evenodd" fill="#3F2AFF" fill-opacity="1.000000" fill-rule="evenodd"/>
	</g>
</svg>
