<svg width="78.000000" height="80.000000" viewBox="0 0 78 80" fill="none" xmlns="http://www.w3.org/2000/svg" xmlns:xlink="http://www.w3.org/1999/xlink">
	<desc>
			Created with Pixso.
	</desc>
	<defs>
		<clipPath id="clip51_120">
			<rect width="23.611115" height="24.285717" transform="translate(27.083313 27.857178)" fill="white" fill-opacity="0"/>
		</clipPath>
		<clipPath id="clip51_116">
			<rect width="77.777779" height="80.000000" fill="white" fill-opacity="0"/>
		</clipPath>
	</defs>
	<rect width="77.777779" height="80.000000" fill="#FFFFFF" fill-opacity="0"/>
	<g clip-path="url(#clip51_116)">
		<path d="M38.8889 0C33.7819 0 28.725 1.03461 24.0068 3.0448C19.2885 5.05499 15.0015 8.0014 11.3903 11.7157C4.09723 19.2172 0 29.3914 0 40C0 50.6086 4.09723 60.7828 11.3903 68.2843C15.0015 71.9987 19.2885 74.9449 24.0068 76.9552C28.725 78.9653 33.7819 80 38.8889 80C49.2029 80 59.0944 75.7858 66.3875 68.2843C73.6805 60.7828 77.7778 50.6086 77.7778 40C77.7778 34.7471 76.7719 29.5457 74.8175 24.6927C72.8632 19.8397 69.9987 15.4301 66.3875 11.7157C62.7763 8.0014 58.4893 5.05499 53.771 3.0448C49.0528 1.03461 43.9958 0 38.8889 0ZM39.2361 18.5714C27.5384 18.5714 18.0555 28.3252 18.0555 40.3572C18.0555 52.389 27.5384 62.1429 39.2361 62.1429C50.9338 62.1429 60.4167 52.389 60.4167 40.3572C60.4167 28.3252 50.9338 18.5714 39.2361 18.5714Z" clip-rule="evenodd" fill="#3F2AFF" fill-opacity="1.000000" fill-rule="evenodd"/>
		<rect width="23.611115" height="24.285717" transform="translate(27.083313 27.857178)" fill="#FF5C00" fill-opacity="0"/>
		<g clip-path="url(#clip51_120)">
			<path d="M38.88 43.11L38.88 33.85C38.63 33.87 38.38 33.91 38.12 33.92L30.77 33.92C30.36 33.92 30.03 34.26 30.03 34.68L30.03 35.44L27.82 35.44C27.41 35.44 27.08 35.78 27.08 36.2L27.08 40.75C27.08 41.17 27.41 41.51 27.82 41.51L30.03 41.51L30.03 42.27C30.03 42.69 30.36 43.03 30.77 43.03L31.21 43.03L34.18 51.16C34.36 51.65 34.77 52 35.27 52.11C35.37 52.13 35.46 52.14 35.56 52.14C35.96 52.14 36.33 51.98 36.6 51.69L38.37 49.88C38.82 49.42 38.93 48.69 38.64 48.12L36.17 43.03L38.13 43.03C38.38 43.04 38.63 43.08 38.88 43.11Z" fill="#212133" fill-opacity="1.000000" fill-rule="nonzero"/>
			<path d="M50.57 28.22C50.55 28.19 50.54 28.17 50.52 28.15C50.44 28.04 50.34 27.96 50.21 27.91C50.21 27.9 50.2 27.9 50.2 27.9C50.19 27.89 50.17 27.9 50.16 27.89C50.09 27.87 50.02 27.85 49.95 27.85C49.9 27.85 49.86 27.87 49.81 27.88C49.78 27.89 49.75 27.89 49.73 27.9C49.6 27.94 49.49 28.01 49.4 28.11C49.4 28.12 49.39 28.12 49.38 28.13C47.08 31 43.87 32.92 40.36 33.63L40.36 43.33C43.87 44.03 47.08 45.95 49.38 48.82C49.39 48.83 49.4 48.84 49.41 48.84C49.46 48.9 49.52 48.95 49.59 48.99C49.61 49 49.63 49.02 49.65 49.03C49.74 49.08 49.84 49.1 49.95 49.1C50.04 49.1 50.12 49.09 50.2 49.06C50.2 49.06 50.21 49.05 50.21 49.05C50.34 49 50.44 48.91 50.52 48.8C50.54 48.78 50.55 48.76 50.57 48.73C50.64 48.62 50.69 48.49 50.69 48.34L50.69 28.61C50.69 28.47 50.64 28.34 50.57 28.22Z" fill="#212133" fill-opacity="1.000000" fill-rule="nonzero"/>
		</g>
	</g>
</svg>
